<?xml version="1.0" encoding="UTF-8"?>
<svg version="1.1" xmlns="http://www.w3.org/2000/svg" width="432" height="131">
<path d="M0 0 C142.56 0 285.12 0 432 0 C432 43.23 432 86.46 432 131 C289.44 131 146.88 131 0 131 C0 87.77 0 44.54 0 0 Z " fill="#F2F2F2" transform="translate(0,0)"/>
<path d="M0 0 C1.765625 0.7578125 1.765625 0.7578125 2.765625 1.7578125 C2.61726018 3.50728661 2.46066037 5.2564026 2.26554871 7.00128174 C0.03072376 24.48995415 0.03072376 24.48995415 5.11138916 40.67016602 C11.60820411 47.60146812 20.55989003 52.25288222 29.10432434 56.20013428 C33.58330716 58.31570149 33.58330716 58.31570149 34.6796875 60.97436523 C34.70804687 61.56290283 34.73640625 62.15144043 34.765625 62.7578125 C29.9268883 65.51328834 25.54291979 67.14515601 20.10546875 68.38671875 C6.79322671 71.28231646 6.79322671 71.28231646 -3.14794922 79.71875 C-5.81839159 86.49809215 -6.82699738 93.44601767 -7.69921875 100.64501953 C-8.45939128 105.06664352 -10.12024627 108.82653367 -12.234375 112.7578125 C-14.87526465 112.66624881 -16.6622913 112.28997872 -18.62695312 110.46240234 C-20.14461779 108.66663988 -21.57337221 106.82603069 -22.984375 104.9453125 C-23.45875 104.33494141 -23.933125 103.72457031 -24.421875 103.09570312 C-25.15664062 102.1453418 -25.15664062 102.1453418 -25.90625 101.17578125 C-26.70687866 100.16572021 -26.70687866 100.16572021 -27.52368164 99.13525391 C-29.234375 96.7578125 -29.234375 96.7578125 -30.94311523 93.59521484 C-34.42555837 87.56702694 -34.42555837 87.56702694 -40.25604248 84.13973999 C-46.09320931 83.2607664 -51.9294308 83.6637824 -57.796875 84.0078125 C-59.58640917 84.06808472 -61.37613874 84.12282384 -63.16601562 84.171875 C-67.52700378 84.3033613 -71.87851951 84.50986918 -76.234375 84.7578125 C-76.894375 83.4378125 -77.554375 82.1178125 -78.234375 80.7578125 C-77.15463427 79.10962003 -76.07020198 77.46450173 -74.984375 75.8203125 C-74.26894531 74.73492187 -73.55351562 73.64953125 -72.81640625 72.53125 C-70.95613856 69.76348036 -69.00199649 67.08582675 -66.99609375 64.421875 C-66.44663086 63.6805835 -65.89716797 62.93929199 -65.33105469 62.17553711 C-64.2396825 60.70854404 -63.13255909 59.25311652 -62.00878906 57.81079102 C-59.36130272 54.22061345 -58.22258198 52.57068844 -58.2890625 47.98828125 C-59.03134909 45.45162417 -59.7305811 43.22518786 -60.921875 40.8828125 C-63.04810978 36.34789109 -64.79239623 31.71771256 -66.484375 27.0078125 C-66.75467529 26.27449707 -67.02497559 25.54118164 -67.3034668 24.78564453 C-68.64023531 21.02171029 -69.6988598 17.81431306 -69.234375 13.7578125 C-68.904375 13.4278125 -68.574375 13.0978125 -68.234375 12.7578125 C-59.41607404 13.25249768 -51.155971 16.40470964 -42.79296875 19.05078125 C-41.62378906 19.41042969 -40.45460937 19.77007812 -39.25 20.140625 C-38.19071289 20.47465332 -37.13142578 20.80868164 -36.04003906 21.15283203 C-33.18548834 21.76835384 -31.89461298 21.86539337 -29.234375 20.7578125 C-27.43760437 19.59037494 -27.43760437 19.59037494 -25.73046875 18.09765625 C-25.07723633 17.55447754 -24.42400391 17.01129883 -23.75097656 16.45166016 C-23.06487305 15.87206543 -22.37876953 15.2924707 -21.671875 14.6953125 C-20.23975997 13.5125302 -18.80616032 12.33154322 -17.37109375 11.15234375 C-16.66903809 10.57436035 -15.96698242 9.99637695 -15.24365234 9.40087891 C-12.5248169 7.17757848 -9.7811922 5.00778967 -6.984375 2.8828125 C-6.15421875 2.24601563 -5.3240625 1.60921875 -4.46875 0.953125 C-2.234375 -0.2421875 -2.234375 -0.2421875 0 0 Z " fill="#FEC003" transform="translate(238.234375,12.2421875)"/>
<path d="M0 0 C1.6953125 0.890625 1.6953125 0.890625 2.6953125 2.890625 C2.60052152 4.66067184 2.4976269 6.43075463 2.34848022 8.197052 C0.44837548 25.92364214 0.44837548 25.92364214 5.99707031 42.09277344 C12.40066867 47.85233794 19.90738992 51.37916232 27.6953125 54.890625 C30.05505912 56.09318292 31.67619999 57.13671991 33.6953125 58.890625 C33.8347168 61.51171875 33.8347168 61.51171875 33.6953125 63.890625 C29.05278238 65.60577246 24.40799178 67.31459327 19.76098633 69.01757812 C18.18026936 69.59787213 16.60018547 70.17989366 15.02075195 70.76367188 C12.75115322 71.60220411 10.47935458 72.43450908 8.20703125 73.265625 C7.50068039 73.52811035 6.79432953 73.7905957 6.0665741 74.06103516 C3.13459535 75.12757503 0.84181469 75.890625 -2.3046875 75.890625 C-2.4375415 76.91188477 -2.57039551 77.93314453 -2.70727539 78.98535156 C-3.62442949 84.98077332 -5.21537362 90.77591833 -6.7421875 96.640625 C-7.05478516 97.87167969 -7.36738281 99.10273437 -7.68945312 100.37109375 C-7.99431641 101.54800781 -8.29917969 102.72492188 -8.61328125 103.9375 C-8.88970459 105.00838867 -9.16612793 106.07927734 -9.45092773 107.18261719 C-10.3046875 109.890625 -10.3046875 109.890625 -12.3046875 112.890625 C-15.12100097 112.54730298 -16.84263423 112.31944981 -18.95458984 110.359375 C-19.42848145 109.7096875 -19.90237305 109.06 -20.390625 108.390625 C-20.92598877 107.67205322 -21.46135254 106.95348145 -22.01293945 106.21313477 C-22.56296631 105.44670654 -23.11299316 104.68027832 -23.6796875 103.890625 C-24.82647912 102.33698576 -25.97361174 100.78359816 -27.12109375 99.23046875 C-27.66781738 98.4813623 -28.21454102 97.73225586 -28.77783203 96.96044922 C-31.16932095 93.71851717 -33.69863497 90.58963915 -36.23046875 87.45703125 C-37.3046875 85.890625 -37.3046875 85.890625 -37.3046875 83.890625 C-37.91763672 83.92091797 -38.53058594 83.95121094 -39.16210938 83.98242188 C-51.5531554 84.58482875 -63.89779111 85.05268896 -76.3046875 84.890625 C-77.2891685 81.7783835 -77.54565477 80.39104268 -76.10473633 77.39868164 C-75.49654053 76.54137451 -74.88834473 75.68406738 -74.26171875 74.80078125 C-73.59978516 73.85138672 -72.93785156 72.90199219 -72.25585938 71.92382812 C-71.55009766 70.94349609 -70.84433594 69.96316406 -70.1171875 68.953125 C-69.43076172 67.97666016 -68.74433594 67.00019531 -68.03710938 65.99414062 C-62.91880953 58.71401308 -62.91880953 58.71401308 -60.92333984 56.03857422 C-58.62682605 52.87086419 -57.7345264 50.80487707 -58.3046875 46.890625 C-58.90608132 44.80173972 -58.90608132 44.80173972 -59.8671875 42.703125 C-60.22425781 41.84976563 -60.58132812 40.99640625 -60.94921875 40.1171875 C-61.39652344 39.05242188 -61.84382813 37.98765625 -62.3046875 36.890625 C-63.57427603 33.79410211 -64.81786497 30.68785915 -66.0546875 27.578125 C-66.53143921 26.41277222 -66.53143921 26.41277222 -67.01782227 25.22387695 C-68.56560396 21.32259009 -69.7487799 18.1692845 -69.3046875 13.890625 C-64.78196361 12.53807455 -61.86592543 13.35867528 -57.4296875 14.796875 C-56.78273926 15.00042603 -56.13579102 15.20397705 -55.46923828 15.41369629 C-52.71540295 16.28053987 -49.97055328 17.17445308 -47.22460938 18.06591797 C-45.21250783 18.71484456 -43.19637121 19.3498605 -41.1796875 19.984375 C-39.98085938 20.37302734 -38.78203125 20.76167969 -37.546875 21.16210938 C-34.24328236 21.90442266 -32.4855153 21.94964305 -29.3046875 20.890625 C-27.02719532 19.30615758 -24.93182237 17.7170905 -22.8046875 15.953125 C-21.56792644 14.95936391 -20.33094174 13.96588111 -19.09375 12.97265625 C-17.21060873 11.44375488 -15.33026666 9.91153195 -13.45214844 8.37646484 C-11.70331556 6.95335798 -9.94259352 5.54623318 -8.1796875 4.140625 C-7.38208008 3.47752319 -7.38208008 3.47752319 -6.56835938 2.80102539 C-2.86686636 -0.13605467 -2.86686636 -0.13605467 0 0 Z " fill="#714381" transform="translate(86.3046875,12.109375)"/>
<path d="M0 0 C1.6953125 0.890625 1.6953125 0.890625 2.6953125 2.890625 C2.60052152 4.66067184 2.4976269 6.43075463 2.34848022 8.197052 C0.44837548 25.92364214 0.44837548 25.92364214 5.99707031 42.09277344 C12.40066867 47.85233794 19.90738992 51.37916232 27.6953125 54.890625 C30.05505912 56.09318292 31.67619999 57.13671991 33.6953125 58.890625 C33.8347168 61.51171875 33.8347168 61.51171875 33.6953125 63.890625 C29.05278238 65.60577246 24.40799178 67.31459327 19.76098633 69.01757812 C18.18026936 69.59787213 16.60018547 70.17989366 15.02075195 70.76367188 C12.75115322 71.60220411 10.47935458 72.43450908 8.20703125 73.265625 C7.50068039 73.52811035 6.79432953 73.7905957 6.0665741 74.06103516 C3.13459535 75.12757503 0.84181469 75.890625 -2.3046875 75.890625 C-2.43157959 76.90068604 -2.55847168 77.91074707 -2.68920898 78.95141602 C-3.27799451 82.71978354 -4.1246517 86.24764 -5.15234375 89.91796875 C-5.32849716 90.55174942 -5.50465057 91.18553009 -5.68614197 91.83851624 C-6.2423902 93.83622446 -6.80467232 95.83217347 -7.3671875 97.828125 C-7.74844947 99.193247 -8.12931251 100.55848048 -8.50976562 101.92382812 C-9.43680325 105.24739362 -10.36925517 108.56941114 -11.3046875 111.890625 C-12.9546875 112.220625 -14.6046875 112.550625 -16.3046875 112.890625 C-17.84960938 110.90429688 -19.39453125 108.91796875 -20.93945312 106.93164062 C-21.57560547 106.11373047 -22.21175781 105.29582031 -22.8671875 104.453125 C-24.71757653 102.0740534 -26.56793077 99.6949872 -28.41455078 97.31298828 C-29.71022565 95.65247601 -31.01646777 94.00017091 -32.33154297 92.35498047 C-32.9710791 91.5507666 -33.61061523 90.74655273 -34.26953125 89.91796875 C-34.85210693 89.192146 -35.43468262 88.46632324 -36.03491211 87.71850586 C-37.3046875 85.890625 -37.3046875 85.890625 -37.3046875 83.890625 C-50.1746875 84.220625 -63.0446875 84.550625 -76.3046875 84.890625 C-77.3046875 79.890625 -77.3046875 79.890625 -76.10473633 77.39868164 C-75.49654053 76.54137451 -74.88834473 75.68406738 -74.26171875 74.80078125 C-73.59978516 73.85138672 -72.93785156 72.90199219 -72.25585938 71.92382812 C-71.55009766 70.94349609 -70.84433594 69.96316406 -70.1171875 68.953125 C-69.43076172 67.97666016 -68.74433594 67.00019531 -68.03710938 65.99414062 C-62.91880953 58.71401308 -62.91880953 58.71401308 -60.92333984 56.03857422 C-58.62682605 52.87086419 -57.7345264 50.80487707 -58.3046875 46.890625 C-58.90608132 44.80173972 -58.90608132 44.80173972 -59.8671875 42.703125 C-60.22425781 41.84976563 -60.58132813 40.99640625 -60.94921875 40.1171875 C-61.39652344 39.05242188 -61.84382813 37.98765625 -62.3046875 36.890625 C-63.57427603 33.79410211 -64.81786497 30.68785915 -66.0546875 27.578125 C-66.53143921 26.41277222 -66.53143921 26.41277222 -67.01782227 25.22387695 C-68.56560396 21.32259009 -69.7487799 18.1692845 -69.3046875 13.890625 C-64.78196361 12.53807455 -61.86592543 13.35867528 -57.4296875 14.796875 C-56.78273926 15.00042603 -56.13579102 15.20397705 -55.46923828 15.41369629 C-52.71540295 16.28053987 -49.97055328 17.17445308 -47.22460938 18.06591797 C-45.21250783 18.71484456 -43.19637121 19.3498605 -41.1796875 19.984375 C-39.98085938 20.37302734 -38.78203125 20.76167969 -37.546875 21.16210938 C-34.24328236 21.90442266 -32.4855153 21.94964305 -29.3046875 20.890625 C-27.02719532 19.30615758 -24.93182237 17.7170905 -22.8046875 15.953125 C-21.56792644 14.95936391 -20.33094174 13.96588111 -19.09375 12.97265625 C-17.21060873 11.44375488 -15.33026666 9.91153195 -13.45214844 8.37646484 C-11.70331556 6.95335798 -9.94259352 5.54623318 -8.1796875 4.140625 C-7.38208008 3.47752319 -7.38208008 3.47752319 -6.56835938 2.80102539 C-2.86686636 -0.13605467 -2.86686636 -0.13605467 0 0 Z " fill="#EC028C" transform="translate(390.3046875,12.109375)"/>
</svg>
